# AST/ASF file generated using VICON BodyLanguage
# -----------------------------------------------
:version 1.10
:name VICON
:units
  mass 1.0
  length 0.45
  angle deg
:documentation
   .ast/.asf automatically generated from VICON data using
   VICON BodyBuilder and BodyLanguage model FoxedUp or BRILLIANT.MOD
:root
   order TX TY TZ RX RY RZ
   axis XYZ
   position 0 0 0  
   orientation 0 0 0 
:bonedata
  begin
     id 1 
     name lhipjoint
     direction 0.692814 -0.645514 0.321437 
     length 2.38754 
     axis 0 0 0  XYZ
  end
  begin
     id 2 
     name lfemur
     direction 0.34202 -0.939693 0  
     length 6.41921  
     axis 0 0 20  XYZ
    dof rx ry rz
    limits (-160.0 20.0)
           (-70.0 70.0)
           (-60.0 70.0)
  end
  begin
     id 3 
     name ltibia
     direction 0.34202 -0.939693 0   
     length 6.98247   
     axis 0 0 20   XYZ
    dof rx
    limits (-10.0 170.0)
  end
  begin
     id 4 
     name lfoot
     direction 0.0947186 -0.260237 0.960888   
     length 1.83034   
     axis -90 7.62852e-016 20   XYZ
    dof rx rz
    limits (-45.0 90.0)
           (-70.0 20.0)
  end
  begin
     id 5 
     name ltoes
     direction 1.53538e-011 -4.21952e-011 1   
     length 0.920499   
     axis -90 7.62852e-016 20   XYZ
    dof rx
    limits (-90.0 20.0)
  end
  begin
     id 6 
     name rhipjoint
     direction -0.631686 -0.693949 0.345555   
     length 2.2209  
     axis 0 0 0  XYZ 
  end
  begin
     id 7 
     name rfemur
     direction -0.34202 -0.939693 0   
     length 6.49542   
     axis 0 0 -20   XYZ
    dof rx ry rz
    limits (-160.0 20.0)
           (-70.0 70.0)
           (-70.0 60.0)
  end
  begin
     id 8 
     name rtibia
     direction -0.34202 -0.939693 0   
     length 7.21712   
     axis 0 0 -20   XYZ
    dof rx
    limits (-10.0 170.0)
 end
 begin
     id 9 
     name rfoot
     direction -0.0825378 -0.226771 0.970444   
     length 1.89724  
     axis -90 -7.62852e-016 -20   XYZ
    dof rx rz
    limits (-45.0 90.0)
           (-20.0 70.0)
  end
  begin
     id 10 
     name rtoes
     direction -1.53515e-011 -4.22016e-011 1   
     length 0.955868   
     axis -90 -7.62852e-016 -20   XYZ
    dof rx
    limits (-90.0 20.0)
  end
  begin
     id 11 
     name lowerback
     direction -0.0104711 0.984802 -0.173368   
     length 1.84931   
     axis 0 0 0   XYZ
    dof rx ry rz
    limits (-20.0 45.0)
           (-30.0 30.0)
           (-30.0 30.0)
  end
  begin
     id 12 
     name upperback
     direction -0.00286433 0.999996 -0.000382853   
     length 1.85768   
     axis 0 0 0   XYZ
    dof rx ry rz
    limits (-20.0 45.0)
           (-30.0 30.0)
           (-30.0 30.0)
  end
  begin
     id 13 
     name thorax
     direction 0.00167534 0.996793 0.0800069   
     length 1.92   
     axis 0 0 0   XYZ
    dof rx ry rz
    limits (-20.0 45.0)
           (-30.0 30.0)
           (-30.0 30.0)
  end
  begin
     id 14 
     name lowerneck
     direction -0.0672491 0.995415 0.068018   
     length 1.58923   
     axis 0 0 0   XYZ
    dof rx ry rz
    limits (-20.0 45.0)
           (-30.0 30.0)
           (-30.0 30.0)
  end
  begin
     id 15 
     name upperneck
     direction 0.0958019 0.982476 -0.159884   
     length 1.60189   
     axis 0 0 0   XYZ
    dof rx ry rz
    limits (-20.0 45.0)
           (-30.0 30.0)
           (-30.0 30.0)
  end
  begin
     id 16
     name head
     direction 0.032989 0.997338 -0.0650226  
     length 1.61681  
     axis 0 0 0   XYZ
    dof rx ry rz
    limits (-20.0 45.0)
           (-30.0 30.0)
           (-30.0 30.0)
  end
  begin
     id 17 
     name lclavicle
     direction 0.954279 0.298875 -0.00496069  
     length 2.99449  
     axis 0 0 0   XYZ
    dof ry rz
    limits (-20.0 10.0)
           (0.0 20.0)
  end
  begin
     id 18 
     name lhumerus
     direction 1 -4.48985e-011 -4.2057e-027   
     length 4.79185   
     axis 180 -30 -90   XYZ
    dof rx ry rz
    limits (-60.0 90.0)
           (-90.0 90.0)
           (-90.0 90.0)
  end
  begin
     id 19
     name lradius
     direction 1 -4.48945e-011 1.15441e-028   
     length 2.65553   
     axis 180 -30 -90   XYZ
    dof rx
    limits (-10.0 170.0)
  end
  begin
     id 20
     name lwrist
     direction 1 -4.4899e-011 4.8894e-028   
     length 1.32777   
     axis -2.56392e-016 90 90   XYZ
    dof ry
    limits (-180.0 0.0)
 end
  begin
     id 21 
     name lhand
     direction 1 -4.48908e-011 9.7788e-028   
     length 0.743904   
     axis -6.23971e-016 90 90   XYZ
    dof rx rz
    limits (-90.0 90.0)
           (-45.0 45.0)
  end
  begin
     id 22 
     name lfingers
     direction 1 -4.49068e-011 1.95576e-027   
     length 0.599754   
     axis -1.24794e-015 90 90   XYZ
    dof rx
    limits (0.0 90.0)
  end
  begin
     id 23
     name lthumb
     direction 0.707107 -6.34883e-011 0.707107   
     length 0.861131   
     axis -90 45 2.85299e-015   XYZ
    dof rx rz
    limits (-45.0 45.0)
           (-45.0 45.0)
  end
  begin
     id 24 
     name rclavicle
     direction -0.957921 0.286916 0.00811568   
     length 3.06817  
     axis 0 0 0   XYZ 
    dof ry rz
    limits (-10.0 20.0)
           (-20.0 0.0)
  end
  begin
     id 25 
     name rhumerus
     direction -1 -4.48971e-011 -3.07942e-027  
     length 4.77254   
     axis 180 30 90   XYZ
    dof rx ry rz
    limits (-90.0 60.0)
           (-90.0 90.0)
           (-90.0 90.0)
  end
  begin
     id 26 
     name rradius
     direction -1 -4.48957e-011 -9.6815e-028   
     length 2.75995   
     axis 180 30 90   XYZ
    dof rx
    limits (-10.0 170.0)
  end
  begin
     id 27 
     name rwrist
     direction -1 -4.48979e-011 4.8894e-028   
     length 1.37997   
     axis -2.56392e-016 -90 -90   XYZ
    dof ry
    limits (-180.0 0.0)
  end
  begin
     id 28
     name rhand
     direction -1 -4.48906e-011 9.7788e-028   
     length 0.701619   
     axis -6.23971e-016 -90 -90   XYZ
    dof rx rz
    limits (-90.0 90.0)
           (-45.0 45.0)
  end
  begin
     id 29
     name rfingers
     direction -1 -4.49018e-011 1.95576e-027   
     length 0.565663   
     axis -1.24794e-015 -90 -90   XYZ
    dof rx
    limits (0.0 90.0)
  end
  begin
     id 30
     name rthumb
     direction -0.707107 -6.34881e-011 0.707107   
     length 0.812183   
     axis -90 -45 -2.85299e-015   XYZ
    dof rx rz
    limits (-45.0 45.0)
           (-45.0 45.0)
  end
:hierarchy
  begin
    root lhipjoint rhipjoint lowerback
    lhipjoint lfemur
    lfemur ltibia
    ltibia lfoot
    lfoot ltoes
    rhipjoint rfemur
    rfemur rtibia
    rtibia rfoot
    rfoot rtoes
    lowerback upperback
    upperback thorax
    thorax lowerneck lclavicle rclavicle
    lowerneck upperneck
    upperneck head
    lclavicle lhumerus
    lhumerus lradius
    lradius lwrist
    lwrist lhand lthumb
    lhand lfingers
    rclavicle rhumerus
    rhumerus rradius
    rradius rwrist
    rwrist rhand rthumb
    rhand rfingers
  end

#!OML:ASF F:\VICON\USERDATA\INSTALL\rory3\rory3.ASF
:FULLY-SPECIFIED
:DEGREES
390
root 0.401308 15.9902 -0.403294 -0.569519 -1.94448 -0.94385
lowerback 13.8537 0.0947945 -1.06035
upperback -1.6454 -0.208688 -1.61131
thorax -9.58078 -0.0937583 -1.08862
lowerneck -11.1614 -11.8259 -15.1065
upperneck 26.6032 -15.1427 5.60428
head 12.2616 -7.73383 2.27711
rclavicle 1.9133e-015 -2.38542e-015
rhumerus 43.7133 33.6312 -24.5888
rradius 79.4785
rwrist -63.0952
rhand -10.435 8.54335
rfingers 7.12502
rthumb 15.5647 -20.8503
lclavicle 1.9133e-015 -2.38542e-015
lhumerus 60.7504 -55.6131 -2.21114
lradius 109.367
lwrist 64.4884
lhand 17.9575 25.3963
lfingers 7.12502
lthumb 42.6278 49.7724
rfemur -6.16726 12.3603 17.3912
rtibia 23.5401
rfoot -12.7189 -12.1737
rtoes -10.0267
lfemur -4.17913 -10.4289 -16.9596
ltibia 20.6087
lfoot -11.8713 9.17038
ltoes -11.9303
391
root 0.396751 15.9901 -0.401651 -0.58373 -1.71986 -1.09274
lowerback 13.8648 0.138688 -1.14587
upperback -1.73413 -0.157185 -1.50972
thorax -9.68343 -0.061145 -0.943015
lowerneck -11.0172 -11.9182 -15.3031
upperneck 27.02 -15.282 5.58172
head 12.4352 -7.82341 2.27379
rclavicle 7.50412e-015 2.06736e-014
rhumerus 43.32 34.9121 -24.0247
rradius 77.4446
rwrist -61.8795
rhand -10.0218 8.72317
rfingers 7.12502
rthumb 15.9627 -20.6391
lclavicle 7.50412e-015 2.06736e-014
lhumerus 59.8106 -54.6003 0.105171
lradius 110.329
lwrist 65.1453
lhand 17.4661 25.7773
lfingers 7.12502
lthumb 42.1676 50.3109
rfemur -6.07318 12.3009 17.5955
rtibia 23.4922
rfoot -12.6862 -12.347
rtoes -10.0915
lfemur -4.26715 -10.4718 -16.7633
ltibia 20.7072
lfoot -11.8594 9.00682
ltoes -12.0173
392
root 0.390771 15.9888 -0.397 -0.628058 -1.48026 -1.01774
lowerback 13.9368 0.2784 -1.76131
upperback -1.83892 -0.0567059 -1.25435
thorax -9.83939 0.0297526 -0.343078
lowerneck -10.9609 -12.0679 -15.7664
upperneck 27.5246 -15.4281 5.53344
head 12.6914 -7.94128 2.28985
rclavicle -2.23633e-015 9.54166e-015
rhumerus 42.8909 36.2576 -23.1869
rradius 75.5385
rwrist -61.2219
rhand -9.00369 8.81335
rfingers 7.12502
rthumb 16.9429 -20.4676
lclavicle -2.23633e-015 9.54166e-015
lhumerus 58.8198 -53.6107 2.70905
lradius 111.04
lwrist 65.9263
lhand 17.3561 25.8382
lfingers 7.12502
lthumb 42.0646 50.4065
rfemur -5.95083 12.2044 17.5582
rtibia 23.4774
rfoot -12.7209 -12.5207
rtoes -10.3977
lfemur -4.25614 -10.5839 -16.8334
ltibia 20.7231
lfoot -11.8668 8.86299
ltoes -12.1422
393
root 0.384949 15.9877 -0.393106 -0.665337 -1.22387 -0.979964
lowerback 13.8308 0.261505 -1.74805
upperback -1.81622 -0.0916634 -1.44351
thorax -9.75337 0.00570843 -0.545955
lowerneck -11.1111 -12.1506 -15.6905
upperneck 28.0257 -15.6084 5.61097
head 12.9497 -8.00296 2.2582
rclavicle 1.73937e-015 2.38542e-015
rhumerus 42.4106 37.5359 -23.0172
rradius 73.8371
rwrist -60.3597
rhand -8.99764 8.40075
rfingers 7.12502
rthumb 16.9487 -20.8798
lclavicle 1.73937e-015 2.38542e-015
lhumerus 58.1277 -52.3563 4.38694
lradius 111.616
lwrist 66.763
lhand 16.9579 26.0339
lfingers 7.12502
lthumb 41.6913 50.7265
rfemur -5.82744 12.1052 17.5607
rtibia 23.4692
rfoot -12.7559 -12.6574
rtoes -10.2205
lfemur -4.22629 -10.7485 -16.8644
ltibia 20.6902
lfoot -11.8629 8.79724
ltoes -12.2442
394
root 0.379285 15.988 -0.389655 -0.704665 -0.985359 -0.980232
lowerback 13.6155 0.286788 -1.86772
upperback -1.73637 -0.0754114 -1.50029
thorax -9.54126 0.0171635 -0.540621
lowerneck -11.2516 -12.2337 -15.6647
upperneck 28.4911 -15.7479 5.59829
head 13.1862 -8.06033 2.20792
rclavicle -5.29264e-015 -6.36111e-015
rhumerus 42.0525 38.9725 -22.4787
rradius 72.4783
rwrist -59.2336
rhand -9.78229 8.05219
rfingers 7.12502
rthumb 16.1933 -21.2915
lclavicle -5.29264e-015 -6.36111e-015
lhumerus 57.3671 -50.9264 6.47165
lradius 111.78
lwrist 67.6577
lhand 17.4381 25.7094
lfingers 7.12502
lthumb 42.1414 50.2519
rfemur -5.7106 12.009 17.6086
rtibia 23.4555
rfoot -12.769 -12.7927
rtoes -10.1707
lfemur -4.19831 -10.8727 -16.8475
ltibia 20.6538
lfoot -11.7753 8.67934
ltoes -12.2254
395
root 0.372707 15.9884 -0.385217 -0.751916 -0.760904 -0.980939
lowerback 13.3055 0.319817 -1.98968
upperback -1.59093 -0.0430858 -1.55244
thorax -9.20318 0.0356148 -0.530697
lowerneck -11.416 -12.3118 -15.7434
upperneck 28.9407 -15.8844 5.691
head 13.4455 -8.11262 2.21151
rclavicle -1.73937e-015 9.54166e-015
rhumerus 41.6571 40.3983 -21.9287
rradius 71.3573
rwrist -58.5271
rhand -10.1359 8.03998
rfingers 7.12502
rthumb 15.8528 -21.331
lclavicle -1.73937e-015 9.54166e-015
lhumerus 56.8505 -49.1995 8.41153
lradius 111.7
lwrist 68.8731
lhand 17.5955 25.0785
lfingers 7.12502
lthumb 42.2889 49.571
rfemur -5.5673 11.8941 17.6592
rtibia 23.3975
rfoot -12.7866 -12.8829
rtoes -10.201
lfemur -4.17986 -10.9855 -16.8298
ltibia 20.6773
lfoot -11.6983 8.57588
ltoes -11.8288
396
root 0.365458 15.989 -0.380759 -0.816995 -0.536191 -1.09616
lowerback 13.1999 0.367012 -1.93732
upperback -1.55313 0.0282566 -1.60327
thorax -9.10131 0.0652404 -0.628428
lowerneck -11.5389 -12.4024 -15.8345
upperneck 29.5166 -16.0419 5.73724
head 13.754 -8.18245 2.1956
rclavicle 7.20594e-016 -2.06736e-014
rhumerus 40.8798 41.9486 -21.6809
rradius 70.5579
rwrist -58.1613
rhand -9.84878 7.81763
rfingers 7.12502
rthumb 16.1293 -21.5312
lclavicle 7.20594e-016 -2.06736e-014
lhumerus 56.3756 -47.667 10.3146
lradius 111.422
lwrist 69.9445
lhand 17.3699 24.8464
lfingers 7.12502
lthumb 42.0775 49.4104
rfemur -5.39348 11.8137 17.846
rtibia 23.3213
rfoot -12.8314 -13.007
rtoes -10.1298
lfemur -4.1509 -11.0396 -16.6807
ltibia 20.7195
lfoot -11.706 8.44191
ltoes -11.9379
397
root 0.356854 15.9892 -0.378548 -0.889334 -0.284086 -1.21299
lowerback 13.1716 0.47488 -2.02432
upperback -1.54867 0.163597 -1.55158
thorax -9.08116 0.136253 -0.551709
lowerneck -11.5545 -12.5426 -16.0051
upperneck 30.0035 -16.2414 5.71776
head 14.0143 -8.28857 2.16363
rclavicle -3.97569e-016 -6.36111e-015
rhumerus 39.9579 43.5826 -21.3018
rradius 70.128
rwrist -57.8701
rhand -9.45703 7.18863
rfingers 7.12502
rthumb 16.5065 -22.1292
lclavicle -3.97569e-016 -6.36111e-015
lhumerus 55.8888 -46.3371 12.3771
lradius 110.856
lwrist 70.6283
lhand 17.3368 24.5415
lfingers 7.12502
lthumb 42.0465 49.1159
rfemur -5.20545 11.7502 18.0464
rtibia 23.2198
rfoot -12.8209 -13.1817
rtoes -10.1647
lfemur -4.14646 -11.1275 -16.5197
ltibia 20.7706
lfoot -11.718 8.28993
ltoes -12.4522
398
root 0.350447 15.9881 -0.376185 -0.939559 -0.0542226 -1.25387
lowerback 13.0225 0.590684 -2.23438
upperback -1.4704 0.299627 -1.45489
thorax -8.91267 0.214035 -0.354925
lowerneck -11.5946 -12.69 -16.3023
upperneck 30.3425 -16.4248 5.76754
head 14.2385 -8.39043 2.17897
rclavicle -2.01269e-015 1.98785e-014
rhumerus 39.3238 45.2401 -20.5834
rradius 70.006
rwrist -57.8393
rhand -9.32608 6.5682
rfingers 7.12502
rthumb 16.6325 -22.7391
lclavicle -2.01269e-015 1.98785e-014
lhumerus 55.4002 -44.9408 14.5166
lradius 110.035
lwrist 71.1303
lhand 17.2949 24.1467
lfingers 7.12502
lthumb 42.0073 48.7343
rfemur -5.03672 11.6814 18.1415
rtibia 23.1131
rfoot -12.8544 -13.3278
rtoes -10.0093
lfemur -4.15999 -11.2088 -16.447
ltibia 20.8153
lfoot -11.7017 8.13741
ltoes -12.6403
399
root 0.346768 15.9879 -0.36837 -0.964965 0.0541348 -1.2912
lowerback 12.8858 0.671073 -2.30059
upperback -1.48006 0.401135 -1.45097
thorax -8.8463 0.266105 -0.332559
lowerneck -11.5797 -12.7211 -16.5002
upperneck 30.7383 -16.477 5.81556
head 14.449 -8.4297 2.21068
rclavicle 9.06955e-015 -1.03368e-014
rhumerus 38.8885 47.189 -19.8245
rradius 70.2215
rwrist -58.314
rhand -9.23859 6.2191
rfingers 7.12502
rthumb 16.7168 -23.0811
lclavicle 9.06955e-015 -1.03368e-014
lhumerus 54.7444 -43.6935 16.5566
lradius 109.108
lwrist 71.565
lhand 17.2652 24.1276
lfingers 7.12502
lthumb 41.9794 48.7246
rfemur -4.91453 11.6553 18.2118
rtibia 23.0255
rfoot -12.8443 -13.4113
rtoes -9.85625
lfemur -4.14026 -11.2771 -16.4069
ltibia 20.8334
lfoot -11.671 8.11521
ltoes -12.7358
400
root 0.34433 15.9869 -0.357317 -1.04774 0.121367 -1.29254
lowerback 12.8498 0.736376 -2.3766
upperback -1.54895 0.473743 -1.47261
thorax -8.90221 0.304922 -0.32814
lowerneck -11.4701 -12.6612 -16.4704
upperneck 31.1193 -16.4071 5.69339
head 14.5713 -8.41754 2.17597
rclavicle -9.69075e-016 5.56597e-015
rhumerus 38.4943 49.3246 -19.1267
rradius 70.6513
rwrist -58.9222
rhand -8.69908 6.13741
rfingers 7.12502
rthumb 17.2361 -23.1182
lclavicle -9.69075e-016 5.56597e-015
lhumerus 54.0302 -42.6207 18.4432
lradius 108.089
lwrist 71.7939
lhand 16.8863 24.217
lfingers 7.12502
lthumb 41.6242 48.9317
rfemur -4.74587 11.6247 18.2401
rtibia 22.9735
rfoot -12.9063 -13.3707
rtoes -9.34414
lfemur -4.01852 -11.3675 -16.4332
ltibia 20.8347
lfoot -11.7312 8.1253
ltoes -12.7022
